Point(128) = {0.650000,-0.037500,0.000000,0.005000};
Point(129) = {0.650000,0.000000,0.000000,0.005000};
Point(130) = {0.650000,-0.037500,0.000000,0.005000};
Point(131) = {0.650000,0.000000,0.000000,0.005000};
Point(132) = {0.650000,0.000000,-0.040000,0.005000};
Point(133) = {0.650000,-0.037500,0.000000,0.005000};
Point(134) = {0.650000,0.000000,0.000000,0.005000};
Point(135) = {0.650000,0.075000,0.000000,0.005000};
Point(136) = {0.650000,-0.037500,0.000000,0.005000};
Point(137) = {0.650000,0.000000,0.000000,0.005000};
Point(138) = {0.650000,0.000000,0.040000,0.005000};
Point(139) = {0.650000,-0.075000,0.000000,0.005000};
Point(140) = {0.350000,0.000000,0.025000,0.005000};
Point(141) = {0.350000,-0.025000,0.000000,0.005000};
Point(142) = {0.350000,0.000000,0.000000,0.005000};
Point(143) = {0.350000,0.000000,-0.025000,0.005000};
Point(144) = {0.350000,0.025000,0.000000,0.005000};
Point(145) = {0.350000,0.000000,-0.040000,0.005000};
Point(146) = {0.350000,0.075000,0.000000,0.005000};
Point(147) = {0.350000,-0.037500,0.000000,0.005000};
Point(148) = {0.350000,0.000000,0.000000,0.005000};
Point(149) = {0.350000,0.000000,0.040000,0.005000};
Point(150) = {0.350000,-0.075000,0.000000,0.005000};
Point(151) = {-0.150000,0.037500,0.000000,0.005000};
Point(152) = {-0.150000,-0.000000,0.000000,0.005000};
Point(153) = {-0.150000,0.037500,0.000000,0.005000};
Point(154) = {-0.150000,-0.000000,0.000000,0.005000};
Point(155) = {-0.150000,-0.000000,-0.040000,0.005000};
Point(156) = {-0.150000,0.037500,0.000000,0.005000};
Point(157) = {-0.150000,-0.000000,0.000000,0.005000};
Point(158) = {-0.150000,-0.075000,0.000000,0.005000};
Point(159) = {-0.150000,0.037500,0.000000,0.005000};
Point(160) = {-0.150000,-0.000000,0.000000,0.005000};
Point(161) = {-0.150000,-0.000000,0.040000,0.005000};
Point(162) = {-0.150000,0.075000,0.000000,0.005000};
Point(163) = {0.150000,-0.000000,0.000000,0.005000};
Point(164) = {0.150000,-0.000000,0.000000,0.005000};
Point(165) = {0.150000,-0.000000,0.025000,0.005000};
Point(166) = {0.150000,-0.000000,0.000000,0.005000};
Point(167) = {0.150000,-0.025000,0.000000,0.005000};
Point(168) = {0.150000,-0.000000,0.000000,0.005000};
Point(169) = {0.150000,-0.000000,-0.025000,0.005000};
Point(170) = {0.150000,0.025000,0.000000,0.005000};
Point(171) = {0.150000,-0.000000,-0.040000,0.005000};
Point(172) = {0.150000,-0.075000,0.000000,0.005000};
Point(173) = {0.150000,0.037500,0.000000,0.005000};
Point(174) = {0.150000,-0.000000,0.000000,0.005000};
Point(175) = {0.150000,-0.000000,0.040000,0.005000};
Point(176) = {0.150000,0.075000,0.000000,0.005000};
Point(77) = {-0.287500,-0.400000,0.000000,0.005000};
Point(76) = {-0.250000,-0.400000,0.000000,0.005000};
Point(82) = {-0.287500,-0.400000,0.000000,0.005000};
Point(81) = {-0.250000,-0.400000,0.000000,0.005000};
Point(67) = {-0.250000,-0.400000,-0.040000,0.005000};
Point(87) = {-0.287500,-0.400000,0.000000,0.005000};
Point(86) = {-0.250000,-0.400000,0.000000,0.005000};
Point(69) = {-0.175000,-0.400000,0.000000,0.005000};
Point(92) = {-0.287500,-0.400000,0.000000,0.005000};
Point(91) = {-0.250000,-0.400000,0.000000,0.005000};
Point(71) = {-0.250000,-0.400000,0.040000,0.005000};
Point(73) = {-0.325000,-0.400000,0.000000,0.005000};
Point(28) = {-0.250000,-0.100000,0.025000,0.005000};
Point(27) = {-0.275000,-0.100000,0.000000,0.005000};
Point(24) = {-0.250000,-0.100000,0.000000,0.005000};
Point(26) = {-0.250000,-0.100000,-0.025000,0.005000};
Point(25) = {-0.225000,-0.100000,0.000000,0.005000};
Point(12) = {-0.250000,-0.100000,-0.040000,0.005000};
Point(13) = {-0.175000,-0.100000,0.000000,0.005000};
Point(14) = {-0.287500,-0.100000,0.000000,0.005000};
Point(15) = {-0.250000,-0.100000,0.000000,0.005000};
Point(16) = {-0.250000,-0.100000,0.040000,0.005000};
Point(17) = {-0.325000,-0.100000,0.000000,0.005000};
Point(45) = {-0.212500,0.400000,0.000000,0.005000};
Point(44) = {-0.250000,0.400000,0.000000,0.005000};
Point(50) = {-0.212500,0.400000,0.000000,0.005000};
Point(49) = {-0.250000,0.400000,0.000000,0.005000};
Point(35) = {-0.250000,0.400000,-0.040000,0.005000};
Point(55) = {-0.212500,0.400000,0.000000,0.005000};
Point(54) = {-0.250000,0.400000,0.000000,0.005000};
Point(37) = {-0.325000,0.400000,0.000000,0.005000};
Point(60) = {-0.212500,0.400000,0.000000,0.005000};
Point(59) = {-0.250000,0.400000,0.000000,0.005000};
Point(39) = {-0.250000,0.400000,0.040000,0.005000};
Point(41) = {-0.175000,0.400000,0.000000,0.005000};
Point(108) = {-0.250000,0.100000,0.000000,0.005000};
Point(112) = {-0.250000,0.100000,0.000000,0.005000};
Point(99) = {-0.250000,0.100000,0.025000,0.005000};
Point(116) = {-0.250000,0.100000,0.000000,0.005000};
Point(101) = {-0.275000,0.100000,0.000000,0.005000};
Point(120) = {-0.250000,0.100000,0.000000,0.005000};
Point(103) = {-0.250000,0.100000,-0.025000,0.005000};
Point(105) = {-0.225000,0.100000,0.000000,0.005000};
Point(4) = {-0.250000,0.100000,-0.040000,0.005000};
Point(3) = {-0.325000,0.100000,0.000000,0.005000};
Point(5) = {-0.212500,0.100000,0.000000,0.005000};
Point(0) = {-0.250000,0.100000,0.000000,0.005000};
Point(2) = {-0.250000,0.100000,0.040000,0.005000};
Point(1) = {-0.175000,0.100000,0.000000,0.005000};
Point(266) = {-0.850000,0.600000,0.200000,0.040000};
Point(268) = {0.850000,0.600000,0.200000,0.040000};
Point(270) = {0.850000,-0.600000,0.200000,0.040000};
Point(272) = {-0.850000,-0.600000,0.200000,0.040000};
Point(259) = {-0.850000,0.600000,-0.200000,0.040000};
Point(261) = {0.850000,0.600000,-0.200000,0.040000};
Point(257) = {0.850000,-0.600000,-0.200000,0.040000};
Point(256) = {-0.850000,-0.600000,-0.200000,0.040000};
Line(177) = {140,165};
Line(178) = {141,167};
Line(179) = {144,170};
Line(180) = {143,169};
Line(181) = {145,132};
Line(182) = {146,135};
Line(183) = {150,139};
Line(184) = {149,138};
Ellipse(185) = {132,129,128,139};
Ellipse(186) = {135,131,130,132};
Ellipse(187) = {138,134,133,135};
Ellipse(188) = {139,137,136,138};
Circle(189) = {140,142,144};
Circle(190) = {141,142,140};
Circle(191) = {143,142,141};
Circle(192) = {144,142,143};
Ellipse(193) = {145,148,147,150};
Ellipse(194) = {146,148,147,145};
Ellipse(195) = {149,148,147,146};
Ellipse(196) = {150,148,147,149};
Line(197) = {171,155};
Line(198) = {172,158};
Line(199) = {176,162};
Line(200) = {175,161};
Ellipse(201) = {155,152,151,162};
Ellipse(202) = {158,154,153,155};
Ellipse(203) = {161,157,156,158};
Ellipse(204) = {162,160,159,161};
Circle(205) = {165,163,170};
Circle(206) = {167,164,165};
Circle(207) = {169,166,167};
Circle(208) = {170,168,169};
Ellipse(209) = {171,174,173,176};
Ellipse(210) = {172,174,173,171};
Ellipse(211) = {175,174,173,172};
Ellipse(212) = {176,174,173,175};
Line(100) = {28,99};
Line(102) = {27,101};
Line(106) = {25,105};
Line(104) = {26,103};
Line(68) = {12,67};
Line(70) = {13,69};
Line(74) = {17,73};
Line(72) = {16,71};
Ellipse(78) = {67,76,77,73};
Ellipse(83) = {69,81,82,67};
Ellipse(88) = {71,86,87,69};
Ellipse(93) = {73,91,92,71};
Circle(33) = {28,24,25};
Circle(32) = {27,24,28};
Circle(31) = {26,24,27};
Circle(30) = {25,24,26};
Ellipse(18) = {12,15,14,17};
Ellipse(19) = {13,15,14,12};
Ellipse(20) = {16,15,14,13};
Ellipse(21) = {17,15,14,16};
Line(36) = {4,35};
Line(38) = {3,37};
Line(42) = {1,41};
Line(40) = {2,39};
Ellipse(46) = {35,44,45,41};
Ellipse(51) = {37,49,50,35};
Ellipse(56) = {39,54,55,37};
Ellipse(61) = {41,59,60,39};
Circle(109) = {99,108,105};
Circle(113) = {101,112,99};
Circle(117) = {103,116,101};
Circle(121) = {105,120,103};
Ellipse(10) = {4,0,5,1};
Ellipse(9) = {3,0,5,4};
Ellipse(8) = {2,0,5,3};
Ellipse(7) = {1,0,5,2};
Line(267) = {259,266};
Line(269) = {261,268};
Line(273) = {256,272};
Line(271) = {257,270};
Line(275) = {272,266};
Line(278) = {266,268};
Line(281) = {270,268};
Line(284) = {272,270};
Line(260) = {256,259};
Line(264) = {259,261};
Line(262) = {257,261};
Line(258) = {256,257};
Line Loop(213) = {189,179,-205,-177};
Line Loop(214) = {190,177,-206,-178};
Line Loop(215) = {191,178,-207,-180};
Line Loop(216) = {192,180,-208,-179};
Line Loop(217) = {193,183,-185,-181};
Line Loop(218) = {194,181,-186,-182};
Line Loop(219) = {195,182,-187,-184};
Line Loop(220) = {196,184,-188,-183};
Line Loop(221) = {188,187,186,185};
Line Loop(222) = {192,191,190,189};
Line Loop(223) = {196,195,194,193};
Line Loop(224) = {209,199,-201,-197};
Line Loop(225) = {210,197,-202,-198};
Line Loop(226) = {211,198,-203,-200};
Line Loop(227) = {212,200,-204,-199};
Line Loop(228) = {204,203,202,201};
Line Loop(229) = {208,207,206,205};
Line Loop(230) = {212,211,210,209};
Line Loop(107) = {33,106,-109,-100};
Line Loop(111) = {32,100,-113,-102};
Line Loop(115) = {31,102,-117,-104};
Line Loop(119) = {30,104,-121,-106};
Line Loop(75) = {18,74,-78,-68};
Line Loop(80) = {19,68,-83,-70};
Line Loop(85) = {20,70,-88,-72};
Line Loop(90) = {21,72,-93,-74};
Line Loop(97) = {93,88,83,78};
Line Loop(29) = {30,31,32,33};
Line Loop(22) = {21,20,19,18};
Line Loop(43) = {10,42,-46,-36};
Line Loop(48) = {9,36,-51,-38};
Line Loop(53) = {8,38,-56,-40};
Line Loop(58) = {7,40,-61,-42};
Line Loop(65) = {61,56,51,46};
Line Loop(125) = {121,117,113,109};
Line Loop(6) = {7,8,9,10};
Line Loop(274) = {260,267,-275,-273};
Line Loop(277) = {264,269,-278,-267};
Line Loop(280) = {262,269,-281,-271};
Line Loop(283) = {258,271,-284,-273};
Line Loop(288) = {284,281,-278,-275};
Line Loop(263) = {258,262,-264,-260};
Plane Surface(235) = {222};
Plane Surface(242) = {229};
Plane Surface(34) = {29};
Plane Surface(123) = {125};
Ruled Surface(231) = {213};
Ruled Surface(232) = {214};
Ruled Surface(233) = {215};
Ruled Surface(234) = {216};
Ruled Surface(236) = {217};
Ruled Surface(237) = {218};
Ruled Surface(238) = {219};
Ruled Surface(239) = {220};
Plane Surface(240) = {221};
Plane Surface(241) = {223,222};
Ruled Surface(243) = {224};
Ruled Surface(244) = {225};
Ruled Surface(245) = {226};
Ruled Surface(246) = {227};
Plane Surface(247) = {228};
Plane Surface(248) = {230,229};
Ruled Surface(110) = {107};
Ruled Surface(114) = {111};
Ruled Surface(118) = {115};
Ruled Surface(122) = {119};
Ruled Surface(79) = {75};
Ruled Surface(84) = {80};
Ruled Surface(89) = {85};
Ruled Surface(94) = {90};
Plane Surface(95) = {97};
Plane Surface(23) = {22,29};
Ruled Surface(47) = {43};
Ruled Surface(52) = {48};
Ruled Surface(57) = {53};
Ruled Surface(62) = {58};
Plane Surface(63) = {65};
Plane Surface(11) = {6,125};
Plane Surface(276) = {274};
Plane Surface(279) = {277};
Plane Surface(282) = {280};
Plane Surface(285) = {283};
Plane Surface(286) = {288};
Plane Surface(265) = {263};
Surface Loop(249) = {-235,242,234,233,232,231};
Surface Loop(250) = {-241,240,239,238,237,236,235};
Surface Loop(251) = {-248,247,246,245,244,243,-242};
Surface Loop(124) = {-34,123,122,118,114,110};
Surface Loop(96) = {-23,95,94,89,84,79,34};
Surface Loop(64) = {-11,63,62,57,52,47,-123};
Surface Loop(291) = {-248,247,246,245,244,243,-241,240,239,238,237,236,234,233,232,231};
Surface Loop(290) = {-11,63,62,57,52,47,-23,95,94,89,84,79,122,118,114,110};
Surface Loop(287) = {-265,286,285,282,-279,-276};
Volume(252) = {249};
Volume(253) = {250};
Volume(254) = {251};
Volume(126) = {124};
Volume(98) = {96};
Volume(66) = {64};
Volume(289) = {287,290,291};
Physical Point(132) = {132};
Physical Point(135) = {135};
Physical Point(138) = {138};
Physical Point(139) = {139};
Physical Point(140) = {140};
Physical Point(141) = {141};
Physical Point(143) = {143};
Physical Point(144) = {144};
Physical Point(145) = {145};
Physical Point(146) = {146};
Physical Point(149) = {149};
Physical Point(150) = {150};
Physical Point(155) = {155};
Physical Point(158) = {158};
Physical Point(161) = {161};
Physical Point(162) = {162};
Physical Point(165) = {165};
Physical Point(167) = {167};
Physical Point(169) = {169};
Physical Point(170) = {170};
Physical Point(171) = {171};
Physical Point(172) = {172};
Physical Point(175) = {175};
Physical Point(176) = {176};
Physical Point(67) = {67};
Physical Point(69) = {69};
Physical Point(71) = {71};
Physical Point(73) = {73};
Physical Point(28) = {28};
Physical Point(27) = {27};
Physical Point(26) = {26};
Physical Point(25) = {25};
Physical Point(12) = {12};
Physical Point(13) = {13};
Physical Point(16) = {16};
Physical Point(17) = {17};
Physical Point(35) = {35};
Physical Point(37) = {37};
Physical Point(39) = {39};
Physical Point(41) = {41};
Physical Point(99) = {99};
Physical Point(101) = {101};
Physical Point(103) = {103};
Physical Point(105) = {105};
Physical Point(4) = {4};
Physical Point(3) = {3};
Physical Point(2) = {2};
Physical Point(1) = {1};
Physical Point(266) = {266};
Physical Point(268) = {268};
Physical Point(270) = {270};
Physical Point(272) = {272};
Physical Point(259) = {259};
Physical Point(261) = {261};
Physical Point(257) = {257};
Physical Point(256) = {256};
Physical Line(177) = {177};
Physical Line(178) = {178};
Physical Line(179) = {179};
Physical Line(180) = {180};
Physical Line(181) = {181};
Physical Line(182) = {182};
Physical Line(183) = {183};
Physical Line(184) = {184};
Physical Line(185) = {185};
Physical Line(186) = {186};
Physical Line(187) = {187};
Physical Line(188) = {188};
Physical Line(189) = {189};
Physical Line(190) = {190};
Physical Line(191) = {191};
Physical Line(192) = {192};
Physical Line(193) = {193};
Physical Line(194) = {194};
Physical Line(195) = {195};
Physical Line(196) = {196};
Physical Line(197) = {197};
Physical Line(198) = {198};
Physical Line(199) = {199};
Physical Line(200) = {200};
Physical Line(201) = {201};
Physical Line(202) = {202};
Physical Line(203) = {203};
Physical Line(204) = {204};
Physical Line(205) = {205};
Physical Line(206) = {206};
Physical Line(207) = {207};
Physical Line(208) = {208};
Physical Line(209) = {209};
Physical Line(210) = {210};
Physical Line(211) = {211};
Physical Line(212) = {212};
Physical Line(100) = {100};
Physical Line(102) = {102};
Physical Line(106) = {106};
Physical Line(104) = {104};
Physical Line(68) = {68};
Physical Line(70) = {70};
Physical Line(74) = {74};
Physical Line(72) = {72};
Physical Line(78) = {78};
Physical Line(83) = {83};
Physical Line(88) = {88};
Physical Line(93) = {93};
Physical Line(33) = {33};
Physical Line(32) = {32};
Physical Line(31) = {31};
Physical Line(30) = {30};
Physical Line(18) = {18};
Physical Line(19) = {19};
Physical Line(20) = {20};
Physical Line(21) = {21};
Physical Line(36) = {36};
Physical Line(38) = {38};
Physical Line(42) = {42};
Physical Line(40) = {40};
Physical Line(46) = {46};
Physical Line(51) = {51};
Physical Line(56) = {56};
Physical Line(61) = {61};
Physical Line(109) = {109};
Physical Line(113) = {113};
Physical Line(117) = {117};
Physical Line(121) = {121};
Physical Line(10) = {10};
Physical Line(9) = {9};
Physical Line(8) = {8};
Physical Line(7) = {7};
Physical Line(267) = {267};
Physical Line(269) = {269};
Physical Line(273) = {273};
Physical Line(271) = {271};
Physical Line(275) = {275};
Physical Line(278) = {278};
Physical Line(281) = {281};
Physical Line(284) = {284};
Physical Line(260) = {260};
Physical Line(264) = {264};
Physical Line(262) = {262};
Physical Line(258) = {258};
Physical Surface(235) = {235};
Physical Surface(242) = {242};
Physical Surface(34) = {34};
Physical Surface(123) = {123};
Physical Surface(231) = {231};
Physical Surface(232) = {232};
Physical Surface(233) = {233};
Physical Surface(234) = {234};
Physical Surface(236) = {236};
Physical Surface(237) = {237};
Physical Surface(238) = {238};
Physical Surface(239) = {239};
Physical Surface(240) = {240};
Physical Surface(241) = {241};
Physical Surface(243) = {243};
Physical Surface(244) = {244};
Physical Surface(245) = {245};
Physical Surface(246) = {246};
Physical Surface(247) = {247};
Physical Surface(248) = {248};
Physical Surface(110) = {110};
Physical Surface(114) = {114};
Physical Surface(118) = {118};
Physical Surface(122) = {122};
Physical Surface(79) = {79};
Physical Surface(84) = {84};
Physical Surface(89) = {89};
Physical Surface(94) = {94};
Physical Surface(95) = {95};
Physical Surface(23) = {23};
Physical Surface(47) = {47};
Physical Surface(52) = {52};
Physical Surface(57) = {57};
Physical Surface(62) = {62};
Physical Surface(63) = {63};
Physical Surface(11) = {11};
Physical Surface(276) = {276};
Physical Surface(279) = {279};
Physical Surface(282) = {282};
Physical Surface(285) = {285};
Physical Surface(286) = {286};
Physical Surface(265) = {265};
Physical Volume(252) = {252};
Physical Volume(253) = {253};
Physical Volume(254) = {254};
Physical Volume(126) = {126};
Physical Volume(98) = {98};
Physical Volume(66) = {66};
Physical Volume(289) = {289};
